<?xml version="1.0" encoding="iso-8859-1"?>
<!-- Uploaded to: SVG Repo, www.svgrepo.com, Generator: SVG Repo Mixer Tools -->
<svg fill="currentColor" height="800px" width="800px" version="1.1" id="Layer_1" xmlns="http://www.w3.org/2000/svg" xmlns:xlink="http://www.w3.org/1999/xlink" 
	 viewBox="0 0 206.917 206.917" xml:space="preserve">
<g>
	<g>
		<g>
			<path d="M176.614,30.278c-40.337-40.341-105.973-40.341-146.31,0C3.646,56.936-6.401,96.018,4.083,132.267
				c0.283,0.981,0.96,1.801,1.869,2.266c0.909,0.462,1.97,0.538,2.932,0.184l98.891-35.6l-35.602,98.89
				c-0.347,0.96-0.278,2.021,0.186,2.93s1.283,1.588,2.264,1.873c9.497,2.746,19.182,4.085,28.793,4.085
				c27.077,0,53.524-10.63,73.198-30.306c19.541-19.539,30.303-45.519,30.303-73.155S196.155,49.817,176.614,30.278z
				 M117.388,94.235c0.485-1.345,0.148-2.853-0.865-3.864c-1.014-1.01-2.517-1.349-3.865-0.862L31.202,118.83
				c-5.158-24.352,2.31-49.956,20.004-67.653c28.811-28.809,75.695-28.813,104.51,0c28.813,28.813,28.813,75.699,0,104.511
				c-17.891,17.891-43.011,25.243-67.649,19.993L117.388,94.235z M171.39,171.364c-23.826,23.822-58.334,33.359-90.901,25.366
				l5.052-14.032c6.056,1.368,12.14,2.071,18.166,2.071c21.246,0,41.714-8.335,57.233-23.855c31.693-31.695,31.693-83.266,0-114.961
				c-31.695-31.695-83.264-31.695-114.959,0c-19.702,19.702-27.864,48.321-21.775,75.396l-14.043,5.055
				C2.17,93.835,11.707,59.329,35.529,35.503c37.462-37.454,98.406-37.451,135.86,0c18.144,18.146,28.138,42.268,28.138,67.93
				S189.534,153.217,171.39,171.364z"/>
			<path d="M92.312,114.583c-1.01-1.01-2.513-1.36-3.856-0.866L3.107,144.196c-1.9,0.678-2.903,2.753-2.257,4.666
				c0.24,0.707,6.074,17.547,22.853,34.329c16.78,16.779,33.619,22.61,34.328,22.852c0.393,0.133,0.792,0.195,1.185,0.195
				c1.519,0,2.941-0.942,3.48-2.454l30.483-85.347C93.659,117.094,93.322,115.593,92.312,114.583z M57.038,197.657
				c-5.494-2.475-16.891-8.472-28.111-19.691c-11.22-11.222-17.217-22.621-19.692-28.112l10.221-3.651
				c3.511,9.458,8.856,17.943,16.073,25.16c7.218,7.215,15.702,12.565,25.158,16.076L57.038,197.657z M63.17,180.487
				c-8.419-3.143-15.98-7.915-22.416-14.348c-6.435-6.435-11.204-13.994-14.346-22.417l57.187-20.424L63.17,180.487z"/>
			<path d="M77.333,40.728c-7.202,7.202-7.202,18.926,0,26.128c3.601,3.601,8.332,5.402,13.062,5.402
				c4.732,0,9.463-1.801,13.064-5.402c7.202-7.202,7.202-18.926,0-26.128C96.257,33.526,84.536,33.53,77.333,40.728z M98.234,61.631
				c-4.323,4.319-11.354,4.323-15.676,0c-4.321-4.323-4.321-11.355,0-15.678c4.319-4.323,11.35-4.326,15.676,0
				C102.556,50.276,102.556,57.308,98.234,61.631z"/>
			<path d="M126.975,161.097c4.934,0,9.573-1.923,13.062-5.412c3.489-3.489,5.411-8.126,5.411-13.062s-1.921-9.573-5.411-13.062
				c-3.489-3.489-8.128-5.412-13.062-5.412c-4.936,0-9.575,1.923-13.064,5.412c-3.489,3.489-5.411,8.126-5.411,13.062
				c0,4.936,1.921,9.573,5.411,13.062C117.4,159.174,122.039,161.097,126.975,161.097z M119.136,134.786
				c2.095-2.093,4.877-3.247,7.839-3.247c2.961,0,5.743,1.155,7.837,3.247c2.093,2.093,3.246,4.875,3.246,7.837
				c0,2.963-1.153,5.744-3.246,7.837c-4.191,4.186-11.489,4.186-15.676,0c-2.093-2.093-3.246-4.875-3.246-7.837
				C115.89,139.661,117.043,136.879,119.136,134.786z"/>
			<path d="M134.812,103.433c3.603,3.601,8.332,5.402,13.064,5.402c4.731,0,9.463-1.801,13.064-5.402
				c7.202-7.202,7.202-18.926,0-26.128c-7.204-7.202-18.924-7.202-26.128,0C127.61,84.508,127.61,96.231,134.812,103.433z
				 M140.037,82.53c4.323-4.319,11.355-4.316,15.678,0c4.321,4.323,4.321,11.355,0,15.678c-4.323,4.312-11.355,4.316-15.678,0
				C135.716,93.886,135.716,86.853,140.037,82.53z"/>
			<path d="M60.849,67.7c-3.901,0.39-11.371,3.76-11.734,13.708c-0.074,2.039,1.519,3.753,3.558,3.825
				c0.047,0.004,0.092,0.004,0.137,0.004c1.979,0,3.617-1.566,3.691-3.562c0.202-5.542,3.965-6.473,5.127-6.625
				c2.008-0.227,3.468-2.024,3.266-4.041C64.69,68.977,62.875,67.523,60.849,67.7z"/>
			<path d="M128.117,73.04c0.837,0,1.678-0.282,2.369-0.862c1.566-1.31,1.774-3.637,0.464-5.203
				c-3.558-4.251-1.386-7.459-0.623-8.353c1.342-1.508,1.223-3.821-0.276-5.185c-1.506-1.378-3.848-1.263-5.219,0.245
				c-2.638,2.898-5.939,10.399,0.449,18.035C126.011,72.589,127.061,73.04,128.117,73.04z"/>
			<path d="M159.067,123.936c1.342-1.512,1.223-3.825-0.276-5.189c-1.506-1.367-3.846-1.256-5.219,0.249
				c-2.638,2.901-5.939,10.403,0.449,18.038c0.731,0.873,1.781,1.324,2.836,1.324c0.837,0,1.678-0.282,2.369-0.862
				c1.566-1.31,1.774-3.637,0.464-5.203C156.13,128.038,158.306,124.827,159.067,123.936z"/>
			<path d="M45.918,155.422c1.402,0.754,3.563,1.429,6.031,1.429c3.612,0,7.879-1.451,11.363-6.231
				c1.202-1.649,0.839-3.958-0.81-5.163c-1.653-1.198-3.958-0.834-5.162,0.812c-3.269,4.482-6.908,3.15-7.958,2.627
				c-1.79-0.949-4.007-0.263-4.965,1.523C43.45,152.214,44.121,154.455,45.918,155.422z"/>
		</g>
	</g>
</g>
</svg>